<?xml version="1.0" encoding="UTF-8" standalone="no"?>
<svg
   xmlns:dc="http://purl.org/dc/elements/1.1/"
   xmlns:cc="http://creativecommons.org/ns#"
   xmlns:rdf="http://www.w3.org/1999/02/22-rdf-syntax-ns#"
   xmlns:svg="http://www.w3.org/2000/svg"
   xmlns="http://www.w3.org/2000/svg"
   xmlns:sodipodi="http://sodipodi.sourceforge.net/DTD/sodipodi-0.dtd"
   xmlns:inkscape="http://www.inkscape.org/namespaces/inkscape"
   version="1.1"
   id="Capa_1"
   x="0px"
   y="0px"
   viewBox="0 0 28.051 28.051"
   style="enable-background:new 0 0 28.051 28.051;"
   xml:space="preserve"
   sodipodi:docname="matrix1.svg"
   inkscape:version="1.0.1 (3bc2e813f5, 2020-09-07)"><metadata
   id="metadata71"><rdf:RDF><cc:Work
       rdf:about=""><dc:format>image/svg+xml</dc:format><dc:type
         rdf:resource="http://purl.org/dc/dcmitype/StillImage" /><dc:title></dc:title></cc:Work></rdf:RDF></metadata><defs
   id="defs69" /><sodipodi:namedview
   pagecolor="#ffffff"
   bordercolor="#666666"
   borderopacity="1"
   objecttolerance="10"
   gridtolerance="10"
   guidetolerance="10"
   inkscape:pageopacity="0"
   inkscape:pageshadow="2"
   inkscape:window-width="1366"
   inkscape:window-height="742"
   id="namedview67"
   showgrid="false"
   inkscape:zoom="4.9264142"
   inkscape:cx="14.0255"
   inkscape:cy="14.0255"
   inkscape:window-x="0"
   inkscape:window-y="26"
   inkscape:window-maximized="1"
   inkscape:current-layer="Capa_1" />
<g
   id="g34"
   style="fill:#ffffff">
	<path
   d="M25.351,0H2.698C1.446,0,0.434,1.004,0.434,2.232v23.59c0,1.23,1.012,2.229,2.264,2.229h22.653   c1.248,0,2.266-0.998,2.266-2.229V2.232C27.617,1.004,26.599,0,25.351,0z M8.662,26.373H4.053c-1.101,0-1.994-0.877-1.994-1.963   v-4.586h6.603C8.662,19.824,8.662,26.373,8.662,26.373z M8.662,17.527H2.059v-6.625h6.603C8.662,10.902,8.662,17.527,8.662,17.527z    M8.662,8.605H2.059v-4.96c0-1.082,0.894-1.963,1.994-1.963h4.608v6.923H8.662z M17.582,26.373h-6.624v-6.549h6.624V26.373z    M17.582,17.527h-6.624v-6.625h6.624V17.527z M17.582,8.605h-6.624V1.682h6.624V8.605z M25.989,24.41   c0,1.086-0.895,1.963-1.992,1.963H19.88v-6.549h6.109V24.41z M25.989,17.527H19.88v-6.625h6.109V17.527z M25.989,8.605H19.88V1.682   h4.117c1.098,0,1.992,0.881,1.992,1.963V8.605z"
   id="path2"
   style="fill:#ffffff" />
	<g
   id="g4"
   style="fill:#ffffff">
	</g>
	<g
   id="g6"
   style="fill:#ffffff">
	</g>
	<g
   id="g8"
   style="fill:#ffffff">
	</g>
	<g
   id="g10"
   style="fill:#ffffff">
	</g>
	<g
   id="g12"
   style="fill:#ffffff">
	</g>
	<g
   id="g14"
   style="fill:#ffffff">
	</g>
	<g
   id="g16"
   style="fill:#ffffff">
	</g>
	<g
   id="g18"
   style="fill:#ffffff">
	</g>
	<g
   id="g20"
   style="fill:#ffffff">
	</g>
	<g
   id="g22"
   style="fill:#ffffff">
	</g>
	<g
   id="g24"
   style="fill:#ffffff">
	</g>
	<g
   id="g26"
   style="fill:#ffffff">
	</g>
	<g
   id="g28"
   style="fill:#ffffff">
	</g>
	<g
   id="g30"
   style="fill:#ffffff">
	</g>
	<g
   id="g32"
   style="fill:#ffffff">
	</g>
</g>
<g
   id="g36">
</g>
<g
   id="g38">
</g>
<g
   id="g40">
</g>
<g
   id="g42">
</g>
<g
   id="g44">
</g>
<g
   id="g46">
</g>
<g
   id="g48">
</g>
<g
   id="g50">
</g>
<g
   id="g52">
</g>
<g
   id="g54">
</g>
<g
   id="g56">
</g>
<g
   id="g58">
</g>
<g
   id="g60">
</g>
<g
   id="g62">
</g>
<g
   id="g64">
</g>
</svg>
