<?xml version="1.0" encoding="UTF-8" standalone="no"?>
<svg
   xmlns:dc="http://purl.org/dc/elements/1.1/"
   xmlns:cc="http://creativecommons.org/ns#"
   xmlns:rdf="http://www.w3.org/1999/02/22-rdf-syntax-ns#"
   xmlns:svg="http://www.w3.org/2000/svg"
   xmlns="http://www.w3.org/2000/svg"
   xmlns:sodipodi="http://sodipodi.sourceforge.net/DTD/sodipodi-0.dtd"
   xmlns:inkscape="http://www.inkscape.org/namespaces/inkscape"
   version="1.1"
   id="Capa_1"
   x="0px"
   y="0px"
   viewBox="0 0 512.255 512.255"
   style="enable-background:new 0 0 512.255 512.255;"
   xml:space="preserve"
   sodipodi:docname="trees.svg"
   inkscape:version="1.0.1 (3bc2e813f5, 2020-09-07)"><metadata
   id="metadata47"><rdf:RDF><cc:Work
       rdf:about=""><dc:format>image/svg+xml</dc:format><dc:type
         rdf:resource="http://purl.org/dc/dcmitype/StillImage" /><dc:title></dc:title></cc:Work></rdf:RDF></metadata><defs
   id="defs45" /><sodipodi:namedview
   pagecolor="#ffffff"
   bordercolor="#666666"
   borderopacity="1"
   objecttolerance="10"
   gridtolerance="10"
   guidetolerance="10"
   inkscape:pageopacity="0"
   inkscape:pageshadow="2"
   inkscape:window-width="1366"
   inkscape:window-height="742"
   id="namedview43"
   showgrid="false"
   inkscape:zoom="1.0580668"
   inkscape:cx="256.1275"
   inkscape:cy="256.1275"
   inkscape:window-x="0"
   inkscape:window-y="26"
   inkscape:window-maximized="1"
   inkscape:current-layer="Capa_1" />
<g
   id="g10"
   style="fill:#ffffff">
	<g
   id="g8"
   style="fill:#ffffff">
		<g
   id="g6"
   style="fill:#ffffff">
			<path
   d="M239.425,57.168l31.28-6.752c-3.068-14.023-10.746-26.613-21.808-35.76l-20.384,24.656     C234.039,43.881,237.879,50.166,239.425,57.168z"
   id="path2"
   style="fill:#ffffff" />
			<path
   d="M510.062,431.776c-7.342-28.173-32.804-47.819-61.918-47.776c-29.095,0.109-54.454,19.829-61.728,48h-18.272V317.728     c34.171-8.757,54.774-43.557,46.018-77.728c-8.757-34.171-43.557-54.774-77.728-46.018c-22.59,5.789-40.229,23.428-46.018,46.018     h-66.272V125.888c18.203-4.595,33.435-17.015,41.6-33.92l-28.8-14c-7.716,15.9-26.86,22.534-42.76,14.818     c-15.9-7.716-22.534-26.86-14.818-42.76C184.79,38.851,196.189,31.824,208.608,32l1.328-32h-1.792     c-35.276-0.044-63.908,28.517-63.951,63.792c-0.036,29.173,19.699,54.664,47.951,61.936V240h-66.272     c-8.757-34.171-43.557-54.774-77.728-46.018C13.973,202.739-6.63,237.539,2.127,271.71c5.789,22.59,23.428,40.229,46.018,46.018     v68.544C13.921,395.109-6.66,430.016,2.177,464.24c8.837,34.224,43.744,54.804,77.968,45.968s54.804-43.744,45.968-77.968     c-5.821-22.543-23.424-40.147-45.968-45.968v-68.544c22.389-5.854,39.874-23.339,45.728-45.728h164.544     c5.854,22.389,23.339,39.874,45.728,45.728V432h-18.272c-8.837-34.224-43.744-54.804-77.968-45.968     c-34.224,8.837-54.804,43.744-45.968,77.968c8.837,34.224,43.744,54.804,77.968,45.968c22.543-5.821,40.147-23.424,45.968-45.968     h68.544c8.898,34.144,43.791,54.609,77.935,45.711S518.961,465.92,510.062,431.776z M96.144,448c0,17.673-14.327,32-32,32     s-32-14.327-32-32c0-17.673,14.327-32,32-32S96.144,430.327,96.144,448z M64.144,288c-17.673,0-32-14.327-32-32s14.327-32,32-32     s32,14.327,32,32S81.818,288,64.144,288z M256.144,480c-17.673,0-32-14.327-32-32c0-17.673,14.327-32,32-32     c17.673,0,32,14.327,32,32C288.144,465.673,273.818,480,256.144,480z M320.144,256c0-17.673,14.327-32,32-32     c17.673,0,32,14.327,32,32s-14.327,32-32,32C334.471,288,320.144,273.673,320.144,256z M448.144,480c-17.673,0-32-14.327-32-32     c0-17.673,14.327-32,32-32c17.673,0,32,14.327,32,32C480.144,465.673,465.818,480,448.144,480z"
   id="path4"
   style="fill:#ffffff" />
		</g>
	</g>
</g>
<g
   id="g12">
</g>
<g
   id="g14">
</g>
<g
   id="g16">
</g>
<g
   id="g18">
</g>
<g
   id="g20">
</g>
<g
   id="g22">
</g>
<g
   id="g24">
</g>
<g
   id="g26">
</g>
<g
   id="g28">
</g>
<g
   id="g30">
</g>
<g
   id="g32">
</g>
<g
   id="g34">
</g>
<g
   id="g36">
</g>
<g
   id="g38">
</g>
<g
   id="g40">
</g>
</svg>
